<?xml version="1.0" encoding="utf-8"?>
<!-- Generator: Adobe Illustrator 14.0.0, SVG Export Plug-In . SVG Version: 6.00 Build 43363)  -->
<!DOCTYPE svg PUBLIC "-//W3C//DTD SVG 1.1//EN" "http://www.w3.org/Graphics/SVG/1.1/DTD/svg11.dtd">
<svg version="1.1" id="图层_1" xmlns="http://www.w3.org/2000/svg" xmlns:xlink="http://www.w3.org/1999/xlink" x="0px" y="0px"
	 width="512px" height="512px" viewBox="0 0 512 512" enable-background="new 0 0 512 512" xml:space="preserve">
<g>
	<path fill="#009F52" d="M-21-25L-21-25L-21-25L-21-25L-21-25z M477.603,269.152c0.407,1.936,0.407,3.717,0,5.295l-36.349,159.346
		c-0.407,1.936-1.171,3.717-2.342,5.244c-4.327,8.195-10.182,14.662-17.563,19.346c-8.196,5.09-17.004,7.635-26.371,7.635H93.8
		c-4.684,0-8.706-1.578-12.015-4.682c-3.309-3.107-4.989-7.027-4.989-11.709l0.56-200.379v-3.514l1.171-2.342
		c0-1.17,0.306-2.137,0.865-2.902c0.611-0.762,1.069-1.375,1.477-1.781l2.342-2.342c0.764-0.764,1.579-1.375,2.342-1.781l2.341-1.17
		c0.764-0.408,1.782-0.664,2.953-0.867c1.17-0.203,2.138-0.305,2.902-0.305h57.425c25.811-1.935,47.549-12.218,65.315-30.75
		c17.769-18.582,27.033-40.727,27.848-66.487c-0.406-1.578-0.56-2.952-0.56-4.123c0-13.695,4.786-25.2,14.356-34.567
		s21.025-14.052,34.262-14.052c11.302,0,21.382,3.513,30.188,10.539c8.809,7.025,14.561,16.036,17.31,26.981
		c1.578,6.262,2.749,12.523,3.513,18.734c0.764,6.262,1.171,12.677,1.171,19.346c0,19.905-3.309,39.251-9.978,57.984h95.505
		c8.197,0.408,15.935,2.648,23.113,6.721c7.229,4.073,12.981,9.673,17.309,16.699c5.498,9.01,7.841,18.938,7.025,29.883H477.603
		L477.603,269.152z M110.243,432.57h33.397l0.56-166.98h-33.396L110.243,432.57L110.243,432.57z M442.476,256.834
		c-3.513-5.498-8.4-7.994-14.662-7.637l0,0l-117.752-0.561c-1.935,0-3.818-0.203-5.55-0.561c-1.781-0.406-3.309-1.172-4.684-2.342
		c-1.374-1.17-2.545-2.443-3.513-3.818c-0.967-1.375-1.781-2.801-2.342-4.377c-0.56-1.578-0.865-3.311-0.865-5.295
		c0-2.749,0.61-5.295,1.781-7.636c6.618-12.523,11.303-25.964,14.052-40.422h0.56c0-0.407,0.102-1.273,0.306-2.647
		c0.203-1.374,0.509-4.328,0.865-8.808c0.407-4.479,0.56-9.266,0.56-14.356v-8.196c0-2.749-0.203-5.192-0.56-7.331
		c-0.407-2.138-0.662-4.123-0.865-5.854c-0.204-1.781-0.306-3.055-0.306-3.818l-0.56-1.171v-0.61c0-1.578-0.204-3.004-0.561-4.378
		c-0.407-1.375-0.865-2.647-1.477-3.818c-0.61-1.171-1.374-2.24-2.342-3.207c-0.967-0.968-2.036-1.782-3.207-2.343
		c-1.171-0.61-2.443-1.068-3.818-1.476s-2.8-0.561-4.378-0.561c-1.935,0-3.92,0.407-5.854,1.171
		c-1.985,0.764-3.614,1.884-4.989,3.208c-1.374,1.374-2.443,3.003-3.207,4.988c-0.764,1.986-1.171,4.124-1.171,6.466v0.56h-0.561
		c0.408,9.011-0.406,17.971-2.341,26.982c-0.765,4.684-2.139,9.774-4.124,15.222c-7.025,21.483-18.837,40.065-35.433,55.644
		c-16.597,15.629-35.841,26.167-57.731,31.665l-0.713,171.107H397.32c0.764,0,1.781-0.205,2.901-0.561
		c1.172-0.408,2.139-0.764,2.902-1.172c2.749-2.342,4.887-4.887,6.465-7.637l34.568-152.93c0.406-2.342,0.509-4.684,0.305-7.025
		c-0.203-2.342-0.865-4.48-2.036-6.465H442.476L442.476,256.834z"/>
</g>
</svg>
